<svg xmlns="http://www.w3.org/2000/svg" width="35" height="28" viewBox="0 0 35 28"><g><g><path fill="#e0e0e0" d="M11.043 0h2v28h-2z"/><path fill="#f89ec6" d="M11.043 0h2v28h-2z"/></g><g><path fill="#e0e0e0" d="M.041 0h2v28h-2z"/><path fill="#f89ec6" d="M.041 0h2v28h-2z"/></g><g><path fill="#e0e0e0" d="M22.044 0h2v28h-2z"/><path fill="#f89ec6" d="M22.044 0h2v28h-2z"/></g><g><path fill="#e0e0e0" d="M33.045 0h2v28h-2z"/><path fill="#f89ec6" d="M33.045 0h2v28h-2z"/></g><g><path fill="#e0e0e0" d="M.041 0h35.005v2H.04z"/><path fill="#f89ec6" d="M.041 0h35.005v2H.04z"/></g><g><path fill="#e0e0e0" d="M.041 26h35.005v2H.04z"/><path fill="#f89ec6" d="M.041 26h35.005v2H.04z"/></g></g></svg>