<svg xmlns="http://www.w3.org/2000/svg" width="37" height="30" viewBox="0 0 37 30"><defs><clipPath id="u4raa"><path fill="#fff" d="M14.07 5.01a9 9 0 1 1 0 18 9 9 0 1 1 0-18z"/></clipPath></defs><g><g><path fill="#e0e0e0" d="M.067 0h2v28h-2z"/></g><g><path fill="#e0e0e0" d="M7.068 28v-2h28.004v2z"/></g><g><path fill="#e0e0e0" d="M35.072 26h2v4h-2z"/></g><g><path fill="#fff" d="M14.07 5.01a9 9 0 1 1 0 18 9 9 0 1 1 0-18z"/><path fill="none" stroke="#e0e0e0" stroke-linecap="round" stroke-linejoin="round" stroke-miterlimit="20" stroke-width="4" d="M14.07 5.01a9 9 0 1 1 0 18 9 9 0 1 1 0-18z" clip-path="url(&quot;#u4raa&quot;)"/></g><g><path fill="#e0e0e0" d="M26.07 0h2.001v28h-2z"/></g><g><path fill="#e0e0e0" d="M.067 0h26.004v2H.067z"/></g><g><path fill="#e0e0e0" d="M.067 26h24.004v2H.067z"/></g></g></svg>